<?xml version="1.0" encoding="UTF-8"?>
<svg width="25px" height="21px" viewBox="0 0 25 21" version="1.1" xmlns="http://www.w3.org/2000/svg" xmlns:xlink="http://www.w3.org/1999/xlink">
    <!-- Generator: Sketch 52.6 (67491) - http://www.bohemiancoding.com/sketch -->
    <title>Blue</title>
    <desc>Created with Sketch.</desc>
    <g id="Blog" stroke="none" stroke-width="1" fill="none" fill-rule="evenodd">
        <g id="Logo/WM-Ideas" transform="translate(-305.000000, -112.000000)" fill="#0104BB" fill-rule="nonzero">
            <path d="M305.911458,113.866667 C306.720312,113.866667 307.077865,114.195733 307.61901,114.694133 C308.250781,115.276 309.03724,116 310.545313,116 C312.053385,116 312.840365,115.276 313.472135,114.694133 C314.013542,114.195733 314.371094,113.866667 315.180729,113.866667 C315.989844,113.866667 316.347396,114.195733 316.889063,114.694133 C317.521354,115.276 318.307813,116 319.816146,116 C321.32474,116 322.111458,115.276 322.74375,114.694133 C323.285156,114.195733 323.642708,113.866667 324.452604,113.866667 C325.2625,113.866667 325.619792,114.195733 326.161458,114.694133 C326.79349,115.276 327.580208,116 329.088542,116 C329.591927,116 330,115.582133 330,115.066667 C330,114.5512 329.591927,114.133333 329.088542,114.133333 C328.278906,114.133333 327.921354,113.804267 327.379687,113.305867 C326.747656,112.724 325.960677,112 324.452344,112 C322.94401,112 322.157292,112.724 321.525,113.3056 C320.983594,113.804 320.625781,114.133333 319.815885,114.133333 C319.00651,114.133333 318.648958,113.804267 318.107292,113.305867 C317.475521,112.724 316.688802,112 315.180729,112 C313.672396,112 312.885677,112.724 312.253646,113.305867 C311.71224,113.804267 311.354688,114.133333 310.545313,114.133333 C309.736458,114.133333 309.378906,113.804267 308.8375,113.305867 C308.20599,112.724 307.419271,112 305.911458,112 C305.408073,112 305,112.417867 305,112.933333 C305,113.4488 305.408073,113.866667 305.911458,113.866667 Z M329.088551,120.133333 C328.278924,120.133333 327.921376,119.804267 327.379715,119.305867 C326.74743,118.724 325.960719,118 324.452402,118 C322.944084,118 322.157373,118.724 321.525088,119.3056 C320.983688,119.804 320.625879,120.133333 319.815992,120.133333 C319.006625,120.133333 318.649077,119.804267 318.107416,119.305867 C317.475391,118.724 316.68868,118 315.180623,118 C313.672305,118 312.885595,118.724 312.25357,119.305867 C311.71217,119.804267 311.354621,120.133333 310.545255,120.133333 C309.736409,120.133333 309.378861,119.804267 308.83746,119.305867 C308.205696,118.724 307.419246,118 305.911449,118 C305.408069,118 305,118.417867 305,118.933333 C305,119.4488 305.408069,119.866667 305.911449,119.866667 C306.720295,119.866667 307.077843,120.195733 307.618983,120.694133 C308.250747,121.276 309.037198,122 310.545255,122 C312.053312,122 312.840283,121.276 313.472047,120.694133 C314.013448,120.195733 314.370996,119.866667 315.180623,119.866667 C315.989729,119.866667 316.347278,120.195733 316.888939,120.694133 C317.521224,121.276 318.307674,122 319.815992,122 C321.32457,122 322.11128,121.276 322.743565,120.694133 C323.284966,120.195733 323.642514,119.866667 324.452402,119.866667 C325.262289,119.866667 325.619577,120.195733 326.161238,120.694133 C326.793523,121.276 327.580234,122 329.088551,122 C329.591931,122 330,121.582133 330,121.066667 C330,120.5512 329.591931,120.133333 329.088551,120.133333 Z M329.088551,125.133333 C328.278924,125.133333 327.921376,124.804267 327.379715,124.305867 C326.74743,123.724 325.960719,123 324.452402,123 C322.944084,123 322.157373,123.724 321.525088,124.3056 C320.983688,124.804 320.625879,125.133333 319.815992,125.133333 C319.006625,125.133333 318.649077,124.804267 318.107416,124.305867 C317.475391,123.724 316.68868,123 315.180623,123 C313.672305,123 312.885595,123.724 312.25357,124.305867 C311.71217,124.804267 311.354621,125.133333 310.545255,125.133333 C309.736409,125.133333 309.378861,124.804267 308.83746,124.305867 C308.205696,123.724 307.419246,123 305.911449,123 C305.408069,123 305,123.417867 305,123.933333 C305,124.4488 305.408069,124.866667 305.911449,124.866667 C306.720295,124.866667 307.077843,125.195733 307.618983,125.694133 C308.250747,126.276 309.037198,127 310.545255,127 C312.053312,127 312.840283,126.276 313.472047,125.694133 C314.013448,125.195733 314.370996,124.866667 315.180623,124.866667 C315.989729,124.866667 316.347278,125.195733 316.888939,125.694133 C317.521224,126.276 318.307674,127 319.815992,127 C321.32457,127 322.11128,126.276 322.743565,125.694133 C323.284966,125.195733 323.642514,124.866667 324.452402,124.866667 C325.262289,124.866667 325.619577,125.195733 326.161238,125.694133 C326.793523,126.276 327.580234,127 329.088551,127 C329.591931,127 330,126.582133 330,126.066667 C330,125.5512 329.591931,125.133333 329.088551,125.133333 Z M329.088542,131.133333 C328.278906,131.133333 327.921354,130.804267 327.379687,130.305867 C326.747396,129.724 325.960677,129 324.452344,129 C322.94401,129 322.157292,129.724 321.525,130.3056 C320.983594,130.804 320.625781,131.133333 319.815885,131.133333 C319.00651,131.133333 318.648958,130.804267 318.107292,130.305867 C317.47526,129.724 316.688542,129 315.180469,129 C313.672135,129 312.885417,129.724 312.253385,130.305867 C311.711979,130.804267 311.354427,131.133333 310.545052,131.133333 C309.736198,131.133333 309.378646,130.804267 308.83724,130.305867 C308.20599,129.724 307.419271,129 305.911458,129 C305.408073,129 305,129.417867 305,129.933333 C305,130.4488 305.408073,130.866667 305.911458,130.866667 C306.720312,130.866667 307.077865,131.195733 307.61901,131.694133 C308.250781,132.276 309.03724,133 310.545313,133 C312.053385,133 312.840365,132.276 313.472135,131.694133 C314.013542,131.195733 314.371094,130.866667 315.180729,130.866667 C315.989844,130.866667 316.347396,131.195733 316.889063,131.694133 C317.521354,132.276 318.307813,133 319.816146,133 C321.32474,133 322.111458,132.276 322.74375,131.694133 C323.285156,131.195733 323.642708,130.866667 324.452604,130.866667 C325.2625,130.866667 325.619792,131.195733 326.161458,131.694133 C326.79349,132.276 327.580208,133 329.088542,133 C329.591927,133 330,132.582133 330,132.066667 C330,131.5512 329.591927,131.133333 329.088542,131.133333 Z" id="Blue"></path>
        </g>
    </g>
</svg>